<?xml version="1.0" encoding="UTF-8" standalone="no"?>
<!-- Created with Inkscape (http://www.inkscape.org/) -->

<svg
   width="256"
   height="256"
   viewBox="0 0 67.733332 67.733333"
   version="1.1"
   id="svg1"
   inkscape:version="1.4.2 (f4327f4, 2025-05-13)"
   sodipodi:docname="make_issue.svg"
   inkscape:export-filename="make_issue.png"
   inkscape:export-xdpi="96"
   inkscape:export-ydpi="96"
   xmlns:inkscape="http://www.inkscape.org/namespaces/inkscape"
   xmlns:sodipodi="http://sodipodi.sourceforge.net/DTD/sodipodi-0.dtd"
   xmlns="http://www.w3.org/2000/svg"
   xmlns:svg="http://www.w3.org/2000/svg">
  <sodipodi:namedview
     id="namedview1"
     pagecolor="#ffffff"
     bordercolor="#000000"
     borderopacity="0.25"
     inkscape:showpageshadow="2"
     inkscape:pageopacity="0.0"
     inkscape:pagecheckerboard="0"
     inkscape:deskcolor="#d1d1d1"
     inkscape:document-units="mm"
     inkscape:zoom="2.1442755"
     inkscape:cx="139.67422"
     inkscape:cy="172.78563"
     inkscape:window-width="1920"
     inkscape:window-height="1111"
     inkscape:window-x="-9"
     inkscape:window-y="-9"
     inkscape:window-maximized="1"
     inkscape:current-layer="layer1" />
  <defs
     id="defs1" />
  <g
     inkscape:label="Layer 1"
     inkscape:groupmode="layer"
     id="layer1">
    <rect
       style="fill:#7cfc00;stroke-width:0.264583"
       id="rect3"
       width="67.73333"
       height="67.73333"
       x="0"
       y="0" />
    <path
       id="rect2"
       style="fill:#000000;stroke-width:0.264583"
       d="M 0 0 L 0 67.733333 L 67.733333 67.733333 L 67.733333 0 L 0 0 z M 22.611023 17.877462 L 24.375773 17.877462 L 27.344067 26.878979 L 27.247949 25.820129 C 27.215859 25.456438 27.183921 25.097737 27.151831 24.744743 C 27.130437 24.381052 27.114469 24.022867 27.103772 23.669873 L 27.103772 22.595003 L 27.103772 17.877462 L 28.708325 17.877462 L 28.708325 29.671057 L 26.943058 29.671057 L 23.974764 20.669539 C 24.006854 21.022534 24.038792 21.380718 24.070882 21.744409 C 24.102973 22.097404 24.130104 22.456105 24.151497 22.819796 C 24.183588 23.17279 24.199556 23.530974 24.199556 23.894666 C 24.210253 24.24766 24.215576 24.600521 24.215576 24.953516 L 24.215576 29.671057 L 22.611023 29.671057 L 22.611023 17.877462 z M 33.682182 21.199223 C 33.970995 21.199223 34.259982 21.225837 34.548796 21.279321 C 34.837609 21.332805 35.11011 21.429134 35.366833 21.568193 C 35.623557 21.707251 35.848152 21.888746 36.040694 22.113379 C 36.243933 22.327315 36.404654 22.568395 36.522319 22.835815 C 36.65068 23.103235 36.735846 23.381059 36.778634 23.669873 C 36.832118 23.958687 36.859249 24.247673 36.859249 24.536487 L 36.859249 26.205119 L 32.109668 26.205119 L 32.109668 26.461951 C 32.109668 26.69728 32.13096 26.932521 32.173747 27.167851 C 32.227231 27.40318 32.32356 27.61713 32.462618 27.809672 C 32.601676 27.991518 32.778365 28.135753 32.992301 28.242721 C 33.216934 28.338992 33.446852 28.387415 33.682182 28.387415 C 33.864027 28.387415 34.040716 28.370929 34.211865 28.338839 C 34.393711 28.306748 34.559237 28.242874 34.708993 28.146602 C 34.858748 28.039634 34.976368 27.906045 35.061943 27.745593 C 35.158214 27.585141 35.211959 27.413775 35.222656 27.23193 L 36.827209 27.23193 C 36.827209 27.488653 36.789432 27.739862 36.714555 27.985889 C 36.639677 28.231915 36.52738 28.46235 36.377625 28.676286 C 36.227869 28.879525 36.046374 29.055697 35.832438 29.205452 C 35.629199 29.355208 35.409927 29.478151 35.174597 29.574422 C 34.939268 29.659997 34.692864 29.719065 34.436141 29.751156 C 34.179418 29.783246 33.928208 29.799215 33.682182 29.799215 C 33.393368 29.799215 33.104382 29.7726 32.815568 29.719116 C 32.526754 29.665632 32.254253 29.569303 31.99753 29.430245 C 31.740807 29.291187 31.510889 29.114498 31.30765 28.900562 C 31.115107 28.675929 30.954387 28.430042 30.826025 28.162622 C 30.708361 27.895202 30.622678 27.616861 30.569194 27.328048 C 30.526406 27.039234 30.505115 26.750764 30.505115 26.461951 L 30.505115 24.536487 C 30.505115 24.247673 30.526406 23.958687 30.569194 23.669873 C 30.622678 23.381059 30.708361 23.103235 30.826025 22.835815 C 30.954387 22.568395 31.115107 22.327315 31.30765 22.113379 C 31.510889 21.888746 31.740807 21.707251 31.99753 21.568193 C 32.254253 21.429134 32.526754 21.332805 32.815568 21.279321 C 33.104382 21.225837 33.393368 21.199223 33.682182 21.199223 z M 38.142891 21.32738 L 39.682849 21.32738 L 40.292631 27.408663 L 41.031087 23.669873 L 42.378809 23.669873 L 43.116748 27.408663 L 43.72653 21.32738 L 45.267004 21.32738 L 43.902747 29.671057 L 42.555025 29.671057 L 41.704948 25.370544 L 40.854354 29.671057 L 39.506632 29.671057 L 38.142891 21.32738 z M 33.682182 22.611023 C 33.446852 22.611023 33.216934 22.664252 32.992301 22.77122 C 32.778365 22.867491 32.601676 23.012243 32.462618 23.204785 C 32.334256 23.386631 32.24325 23.595257 32.189766 23.830587 C 32.136282 24.065916 32.109668 24.301157 32.109668 24.536487 L 32.109668 24.793319 L 35.254696 24.793319 L 35.254696 24.536487 C 35.254696 24.301157 35.228081 24.065916 35.174597 23.830587 C 35.121113 23.595257 35.024784 23.386631 34.885726 23.204785 C 34.757364 23.012243 34.580675 22.867491 34.356042 22.77122 C 34.142106 22.664252 33.917511 22.611023 33.682182 22.611023 z M 14.829069 37.934119 L 20.444747 37.934119 L 20.444747 39.345919 L 18.439185 39.345919 L 18.439185 48.315397 L 20.444747 48.315397 L 20.444747 49.727197 L 14.829069 49.727197 L 14.829069 48.315397 L 16.834631 48.315397 L 16.834631 39.345919 L 14.829069 39.345919 L 14.829069 37.934119 z M 25.675435 41.255363 C 25.910765 41.255363 26.140683 41.271332 26.365316 41.303422 C 26.600645 41.324816 26.82524 41.378561 27.039176 41.464136 C 27.263809 41.539013 27.472436 41.640665 27.664978 41.769027 C 27.868217 41.897388 28.039583 42.057592 28.178642 42.250134 C 28.3177 42.43198 28.424675 42.635283 28.499552 42.859916 C 28.57443 43.084549 28.61169 43.314467 28.61169 43.549797 L 28.61169 43.662451 L 27.007137 43.662451 L 27.007137 43.613875 C 27.007137 43.46412 26.964554 43.319885 26.878979 43.180827 C 26.793405 43.041768 26.68643 42.934794 26.558069 42.859916 C 26.429707 42.785039 26.285472 42.737133 26.12502 42.715739 C 25.975265 42.683649 25.825191 42.66768 25.675435 42.66768 C 25.52568 42.66768 25.376122 42.678326 25.226367 42.699719 C 25.076612 42.721113 24.932377 42.769019 24.793319 42.843896 C 24.664957 42.918774 24.557982 43.020426 24.472408 43.148787 C 24.386834 43.277149 24.343734 43.416061 24.343734 43.565816 C 24.343734 43.747662 24.397479 43.913705 24.504447 44.06346 C 24.622112 44.202519 24.755701 44.320139 24.905457 44.41641 C 25.055212 44.501985 25.215415 44.571699 25.386564 44.625183 C 25.557713 44.678667 25.723756 44.731896 25.884208 44.78538 C 26.055357 44.838864 26.226723 44.897933 26.397872 44.962113 C 26.569021 45.015597 26.729224 45.079472 26.878979 45.15435 C 27.039431 45.229227 27.194312 45.31491 27.344067 45.411182 C 27.504519 45.496756 27.649271 45.598408 27.777633 45.716073 C 27.916691 45.833737 28.039634 45.962004 28.146602 46.101062 C 28.264267 46.229424 28.365919 46.373659 28.451493 46.534111 C 28.537068 46.683866 28.600942 46.844586 28.64373 47.015735 C 28.686517 47.186884 28.708325 47.363573 28.708325 47.545418 C 28.708325 47.780748 28.665225 48.015989 28.579651 48.251318 C 28.504773 48.486648 28.392476 48.695274 28.242721 48.87712 C 28.092965 49.058966 27.916793 49.219169 27.713554 49.358228 C 27.510315 49.486589 27.291042 49.588241 27.055713 49.663118 C 26.83108 49.737996 26.595322 49.786419 26.349296 49.807812 C 26.113966 49.839903 25.878726 49.855872 25.643396 49.855872 C 25.408066 49.855872 25.167503 49.839903 24.921476 49.807812 C 24.686147 49.786419 24.456229 49.737996 24.231596 49.663118 C 24.006963 49.588241 23.787691 49.486589 23.573755 49.358228 C 23.370516 49.229866 23.193827 49.074985 23.044071 48.89314 C 22.894316 48.700597 22.776696 48.491971 22.691121 48.267338 C 22.616244 48.032008 22.578984 47.796768 22.578984 47.561438 L 22.578984 47.448783 L 24.183537 47.448783 L 24.183537 47.496842 C 24.183537 47.657294 24.231443 47.807369 24.327714 47.946427 C 24.434682 48.085486 24.557625 48.19246 24.696684 48.267338 C 24.846439 48.331519 25.001836 48.379425 25.162288 48.411515 C 25.32274 48.432909 25.482944 48.443555 25.643396 48.443555 C 25.803848 48.443555 25.964568 48.432909 26.12502 48.411515 C 26.285472 48.390122 26.43503 48.347539 26.574089 48.283358 C 26.723844 48.20848 26.846787 48.106828 26.943058 47.978467 C 27.050026 47.839408 27.103772 47.689851 27.103772 47.529399 C 27.103772 47.35825 27.044703 47.197529 26.927039 47.047774 C 26.820071 46.898019 26.686481 46.780399 26.526029 46.694824 C 26.376274 46.60925 26.215554 46.539535 26.044405 46.486051 C 25.883953 46.432567 25.718427 46.379338 25.547278 46.325854 L 25.033614 46.165141 C 24.873162 46.10096 24.712959 46.031762 24.552507 45.956885 C 24.392055 45.882007 24.236657 45.796324 24.086902 45.700053 C 23.937147 45.603782 23.792912 45.50213 23.653853 45.395162 C 23.525492 45.277497 23.402548 45.154554 23.284884 45.026192 C 23.177916 44.887134 23.081587 44.737059 22.996012 44.576607 C 22.910438 44.416155 22.846046 44.250629 22.803259 44.07948 C 22.760472 43.908331 22.739181 43.736965 22.739181 43.565816 C 22.739181 43.330487 22.776958 43.100569 22.851835 42.875936 C 22.926713 42.651303 23.033687 42.448 23.172746 42.266154 C 23.311804 42.073612 23.477331 41.913408 23.669873 41.785046 C 23.873112 41.645988 24.081739 41.539013 24.295675 41.464136 C 24.520307 41.378561 24.744903 41.324816 24.969535 41.303422 C 25.204865 41.271332 25.440106 41.255363 25.675435 41.255363 z M 33.698201 41.255363 C 33.933531 41.255363 34.163449 41.271332 34.388082 41.303422 C 34.623411 41.324816 34.848007 41.378561 35.061943 41.464136 C 35.286575 41.539013 35.495202 41.640665 35.687744 41.769027 C 35.890983 41.897388 36.062349 42.057592 36.201408 42.250134 C 36.340466 42.43198 36.447441 42.635283 36.522319 42.859916 C 36.597196 43.084549 36.634456 43.314467 36.634456 43.549797 L 36.634456 43.662451 L 35.029903 43.662451 L 35.029903 43.613875 C 35.029903 43.46412 34.98732 43.319885 34.901746 43.180827 C 34.816171 43.041768 34.709197 42.934794 34.580835 42.859916 C 34.452473 42.785039 34.307722 42.737133 34.14727 42.715739 C 33.997514 42.683649 33.847957 42.66768 33.698201 42.66768 C 33.548446 42.66768 33.398889 42.678326 33.249133 42.699719 C 33.099378 42.721113 32.954626 42.769019 32.815568 42.843896 C 32.687206 42.918774 32.580232 43.020426 32.494657 43.148787 C 32.409083 43.277149 32.3665 43.416061 32.3665 43.565816 C 32.3665 43.747662 32.419729 43.913705 32.526697 44.06346 C 32.644362 44.202519 32.778467 44.320139 32.928223 44.41641 C 33.077978 44.501985 33.238181 44.571699 33.40933 44.625183 C 33.580479 44.678667 33.746522 44.731896 33.906974 44.78538 C 34.078123 44.838864 34.248972 44.897933 34.420121 44.962113 C 34.59127 45.015597 34.75199 45.079472 34.901746 45.15435 C 35.062198 45.229227 35.217078 45.31491 35.366833 45.411182 C 35.527285 45.496756 35.67152 45.598408 35.799882 45.716073 C 35.93894 45.833737 36.0624 45.962004 36.169368 46.101062 C 36.287033 46.229424 36.388685 46.373659 36.474259 46.534111 C 36.559834 46.683866 36.623709 46.844586 36.666496 47.015735 C 36.709283 47.186884 36.730575 47.363573 36.730575 47.545418 C 36.730575 47.780748 36.687991 48.015989 36.602417 48.251318 C 36.527539 48.486648 36.415242 48.695274 36.265487 48.87712 C 36.115731 49.058966 35.939042 49.219169 35.735803 49.358228 C 35.532564 49.486589 35.313292 49.588241 35.077962 49.663118 C 34.853329 49.737996 34.618089 49.786419 34.372062 49.807812 C 34.136733 49.839903 33.901492 49.855872 33.666162 49.855872 C 33.430833 49.855872 33.190269 49.839903 32.944242 49.807812 C 32.708913 49.786419 32.478995 49.737996 32.254362 49.663118 C 32.029729 49.588241 31.810457 49.486589 31.596521 49.358228 C 31.393282 49.229866 31.216593 49.074985 31.066838 48.89314 C 30.917082 48.700597 30.799462 48.491971 30.713888 48.267338 C 30.63901 48.032008 30.601233 47.796768 30.601233 47.561438 L 30.601233 47.448783 L 32.205786 47.448783 L 32.205786 47.496842 C 32.205786 47.657294 32.254209 47.807369 32.35048 47.946427 C 32.457448 48.085486 32.580391 48.19246 32.71945 48.267338 C 32.869205 48.331519 33.024086 48.379425 33.184538 48.411515 C 33.34499 48.432909 33.50571 48.443555 33.666162 48.443555 C 33.826614 48.443555 33.986818 48.432909 34.14727 48.411515 C 34.307722 48.390122 34.457796 48.347539 34.596855 48.283358 C 34.74661 48.20848 34.869553 48.106828 34.965824 47.978467 C 35.072792 47.839408 35.126021 47.689851 35.126021 47.529399 C 35.126021 47.35825 35.067469 47.197529 34.949805 47.047774 C 34.842837 46.898019 34.709248 46.780399 34.548796 46.694824 C 34.39904 46.60925 34.23832 46.539535 34.067171 46.486051 C 33.906719 46.432567 33.741193 46.379338 33.570044 46.325854 L 33.05638 46.165141 C 32.895928 46.10096 32.735725 46.031762 32.575273 45.956885 C 32.414821 45.882007 32.259423 45.796324 32.109668 45.700053 C 31.959913 45.603782 31.815678 45.50213 31.676619 45.395162 C 31.548258 45.277497 31.425315 45.154554 31.30765 45.026192 C 31.200682 44.887134 31.104353 44.737059 31.018778 44.576607 C 30.933204 44.416155 30.868813 44.250629 30.826025 44.07948 C 30.783238 43.908331 30.761947 43.736965 30.761947 43.565816 C 30.761947 43.330487 30.799207 43.100569 30.874084 42.875936 C 30.948962 42.651303 31.055937 42.448 31.194995 42.266154 C 31.334054 42.073612 31.500097 41.913408 31.692639 41.785046 C 31.895878 41.645988 32.104505 41.539013 32.318441 41.464136 C 32.543074 41.378561 32.767669 41.324816 32.992301 41.303422 C 33.227631 41.271332 33.462872 41.255363 33.698201 41.255363 z M 49.727197 41.255363 C 50.016011 41.255363 50.304997 41.281977 50.593811 41.335461 C 50.882625 41.388945 51.155126 41.485274 51.411849 41.624333 C 51.668572 41.763391 51.893684 41.945403 52.086226 42.170036 C 52.289466 42.383972 52.449669 42.624536 52.567334 42.891956 C 52.695696 43.159376 52.781379 43.437716 52.824166 43.72653 C 52.87765 44.015344 52.904264 44.303813 52.904264 44.592627 L 52.904264 46.261776 L 48.154683 46.261776 L 48.154683 46.518091 C 48.154683 46.75342 48.176492 46.989178 48.219279 47.224508 C 48.272763 47.459837 48.369092 47.673787 48.50815 47.866329 C 48.647209 48.048175 48.823381 48.192409 49.037317 48.299377 C 49.26195 48.395649 49.491868 48.443555 49.727197 48.443555 C 49.909043 48.443555 50.085732 48.427586 50.256881 48.395496 C 50.438726 48.363405 50.604253 48.29953 50.754008 48.203259 C 50.903763 48.096291 51.0219 47.962185 51.107475 47.801733 C 51.203746 47.641281 51.256975 47.470432 51.267672 47.288586 L 52.872225 47.288586 C 52.872225 47.54531 52.834965 47.796519 52.760087 48.042546 C 52.685209 48.288572 52.572912 48.51849 52.423157 48.732426 C 52.273402 48.935665 52.09139 49.112354 51.877454 49.262109 C 51.674214 49.411865 51.454942 49.534808 51.219613 49.631079 C 50.984283 49.716654 50.738396 49.775722 50.481673 49.807812 C 50.22495 49.839903 49.973224 49.855872 49.727197 49.855872 C 49.438384 49.855872 49.149914 49.82874 48.8611 49.775256 C 48.572287 49.721772 48.299269 49.62596 48.042546 49.486902 C 47.785822 49.347843 47.555904 49.171154 47.352665 48.957218 C 47.160123 48.732586 46.999402 48.486699 46.871041 48.219279 C 46.753376 47.951859 46.66821 47.673518 46.614726 47.384705 C 46.571939 47.095891 46.550647 46.806904 46.550647 46.518091 L 46.550647 44.592627 C 46.550647 44.303813 46.571939 44.015344 46.614726 43.72653 C 46.66821 43.437716 46.753376 43.159376 46.871041 42.891956 C 46.999402 42.624536 47.160123 42.383972 47.352665 42.170036 C 47.555904 41.945403 47.785822 41.763391 48.042546 41.624333 C 48.299269 41.485274 48.572287 41.388945 48.8611 41.335461 C 49.149914 41.281977 49.438384 41.255363 49.727197 41.255363 z M 38.656038 41.384037 L 40.260592 41.384037 L 40.260592 46.518091 C 40.260592 46.667846 40.265915 46.817921 40.276611 46.967676 C 40.298005 47.117431 40.330459 47.266989 40.373246 47.416744 C 40.42673 47.555802 40.490605 47.694714 40.565483 47.833773 C 40.651057 47.962134 40.747386 48.074432 40.854354 48.170703 C 40.972019 48.266974 41.105608 48.336689 41.255363 48.379476 C 41.405118 48.422263 41.555193 48.443555 41.704948 48.443555 C 41.854703 48.443555 42.004261 48.422263 42.154016 48.379476 C 42.303771 48.336689 42.432038 48.266974 42.539006 48.170703 C 42.65667 48.074432 42.752999 47.962134 42.827877 47.833773 C 42.913451 47.694714 42.977843 47.555802 43.02063 47.416744 C 43.074114 47.266989 43.106051 47.117431 43.116748 46.967676 C 43.138142 46.817921 43.148787 46.667846 43.148787 46.518091 L 43.148787 41.384037 L 44.753341 41.384037 L 44.753341 49.727197 L 43.148787 49.727197 L 43.148787 48.251318 C 43.063213 48.475951 42.956238 48.6899 42.827877 48.89314 C 42.699515 49.096379 42.539312 49.272551 42.346769 49.422306 C 42.164924 49.572062 41.956297 49.679036 41.720968 49.743217 C 41.496335 49.818095 41.266417 49.855872 41.031087 49.855872 C 40.774364 49.855872 40.517315 49.812772 40.260592 49.727197 C 40.014565 49.65232 39.795293 49.529376 39.602751 49.358228 C 39.420905 49.187079 39.266024 48.989098 39.137663 48.764465 C 39.009301 48.529136 38.907649 48.288572 38.832772 48.042546 C 38.768591 47.796519 38.720168 47.54531 38.688078 47.288586 C 38.666684 47.031863 38.656038 46.774814 38.656038 46.518091 L 38.656038 41.384037 z M 49.727197 42.66768 C 49.491868 42.66768 49.26195 42.720909 49.037317 42.827877 C 48.823381 42.924148 48.647209 43.068383 48.50815 43.260925 C 48.379789 43.442771 48.288783 43.651397 48.235299 43.886727 C 48.181815 44.122056 48.154683 44.357297 48.154683 44.592627 L 48.154683 44.849459 L 51.299711 44.849459 L 51.299711 44.592627 C 51.299711 44.357297 51.273097 44.122056 51.219613 43.886727 C 51.166129 43.651397 51.0698 43.442771 50.930741 43.260925 C 50.80238 43.068383 50.625691 42.924148 50.401058 42.827877 C 50.187122 42.720909 49.962527 42.66768 49.727197 42.66768 z " />
  </g>
</svg>
